# xmcd
#
# Track frame offsets:
# 150
# 22072
# 38560
# 57115
# 76205
# 100345
# 146647
# 168132
# 183007
# 223282
# 254432
# 278017
# 307732
#
# Disc length: 4432 seconds
#
#
# Revision: 0
# Processed by: cddbd v1.5.1PL0 Copyright (c) Steve Scherf et al.
# Submitted via: FreeRIP 2.30 
#
DISCID=a8114e0d
DTITLE=Motel Kings - All Right All Night
DYEAR=1900
DGENRE=Blues
TTITLE0=Sure Fine Lovin'
TTITLE1=Tina Nina Noo
TTITLE2=I Don't Believe
TTITLE3=I Was Fooled
TTITLE4=Dynamite 
TTITLE5=Help Me
TTITLE6=Red Shoes
TTITLE7=Lucy Mae Blues
TTITLE8=Bad Boy
TTITLE9=Hug You Kiss You
TTITLE10=Back Scratcher
TTITLE11=You Were Wrong
TTITLE12=The Crawl
EXTD=
EXTT0=
EXTT1=
EXTT2=
EXTT3=
EXTT4=
EXTT5=
EXTT6=
EXTT7=
EXTT8=
EXTT9=
EXTT10=
EXTT11=
EXTT12=
PLAYORDER=
